<svg width="101" height="43" viewBox="0 0 101 43" fill="none" xmlns="http://www.w3.org/2000/svg">
<path d="M58.8862 26.0209L57.302 23.7011C54.1052 25.9078 51.8986 26.8413 49.4939 27.294L49.6353 26.0775C51.4176 24.4933 52.6624 23.5597 54.1618 21.0702C56.0855 17.8734 54.671 14.422 51.8703 14.422C49.5222 14.422 48.1925 17.5339 47.5136 21.2965C46.1274 28.8499 45.6181 36.9409 48.9564 38.1857C51.361 39.091 53.4545 36.9975 53.5394 33.6593C53.5677 32.075 52.8887 30.6605 51.9551 29.5855C54.0486 28.9348 56.2269 27.8598 58.8862 26.0209ZM49.211 30.7171C49.9465 31.2263 50.7387 32.3013 50.7104 33.6027C50.6538 35.3001 50.4275 35.7245 49.9182 35.5264C49.2959 35.3001 49.0978 33.4047 49.211 30.7171ZM50.3426 21.5794C50.8235 18.8635 51.4459 17.251 51.8703 17.251C52.5209 17.251 52.719 17.9865 51.7288 19.5991C51.2479 20.4195 50.7952 21.0419 50.3426 21.5794ZM69.1531 26.5019L67.0031 24.6913C64.4287 27.7466 62.3635 28.7934 60.9207 28.369C60.0437 28.1144 59.3364 27.4637 59.0818 25.7946C60.9207 24.0689 62.2786 22.0886 63.3819 19.7122C65.2491 15.7233 64.4004 12.1305 61.5431 12.1305C59.4213 12.1305 57.639 14.1957 56.6772 19.5708C55.3475 27.1243 57.3561 30.2362 60.1286 31.0849C62.7878 31.877 66.1261 30.123 69.1531 26.5019ZM59.2516 21.3248L59.4496 20.08C60.1851 15.9214 60.8924 14.9595 61.5431 14.9595C61.9108 14.9595 61.9674 16.0345 60.8358 18.524C60.3549 19.5708 59.8457 20.5044 59.2516 21.3248ZM79.9666 26.1058L78.4955 23.6729C77.5336 24.2669 76.6283 24.663 75.7513 24.8327C75.8928 21.0985 73.2618 18.8352 70.6308 19.4576C69.669 19.7122 68.99 20.1932 68.6222 20.8155C67.3492 21.8906 66.4722 23.5597 66.4722 25.5683C66.4722 28.4822 68.5939 30.4908 70.4894 30.7171C72.3848 30.9151 74.1388 29.6987 75.0724 27.6618C76.7698 27.6335 78.4672 27.0394 79.9666 26.1058ZM69.3012 25.5683C69.3012 25.3986 69.3012 25.2288 69.3295 25.0591C69.5841 25.3986 69.8953 25.7097 70.2631 25.9926C70.9137 26.5019 71.5644 26.8696 72.2434 27.1525C71.8756 27.6901 71.3664 27.9447 70.8289 27.8881C70.0367 27.8032 69.3012 27.096 69.3012 25.5683ZM71.3098 22.2301C72.2434 22.0037 72.9789 22.5695 72.9506 24.3801C72.6394 24.2387 72.3282 24.0406 72.017 23.786C70.9137 22.909 70.6874 22.3715 71.3098 22.2301ZM95.2024 20.1649L92.3733 19.7688C91.5812 25.8795 89.9404 28.2559 88.6108 28.171C87.7621 28.1144 87.2245 25.3137 87.6489 22.2583L84.8199 21.8623C84.8199 21.8906 84.8199 21.9472 84.7916 21.9754C84.3107 25.7946 83.2356 27.8881 81.7645 27.8881C81.2836 27.8881 80.7461 27.1808 80.6895 25.3137C80.6329 23.5031 80.9158 22.0037 81.0007 20.0234L78.1717 19.9103C78.0868 21.6643 77.8039 23.2768 77.8605 25.3703C77.9454 28.6519 79.8408 30.7171 81.7645 30.7171C83.3205 30.7171 84.5653 29.8967 85.5271 28.5388C86.1495 29.9533 87.1114 30.8868 88.441 31C90.874 31.1415 93.024 28.7934 94.2971 24.4933C95.5701 25.8512 97.5222 26.7565 100.351 26.1341L99.7288 23.3617C96.2774 24.1538 95.2024 21.2682 95.2024 20.1932V20.1649Z" fill="#E7E7E7"/>
<circle cx="19.6329" cy="22.8023" r="19.6329" fill="#DBF40C"/>
<path d="M12.3174 28.9251C10.2467 28.8423 8.94911 27.4066 9.03194 25.1703C9.08716 23.0168 10.4952 21.6639 12.5107 21.7192C14.5538 21.802 15.8514 23.2653 15.7962 25.4188C15.7133 27.6551 14.3605 29.008 12.3174 28.9251ZM6.27103 25.0599C6.13298 28.5938 8.78346 31.548 12.207 31.6861C15.6581 31.8241 18.419 29.0356 18.5571 25.5292C18.6399 23.3481 17.6184 21.3879 16.017 20.1731C16.7901 19.3172 17.2871 18.2128 17.3423 16.9704C17.4527 14.2647 15.4096 12.0284 12.842 11.9455C10.2191 11.8351 8.03801 13.9886 7.95518 16.6391C7.89996 17.8815 8.34171 19.0687 9.08716 19.9798C7.45822 21.0565 6.32624 22.934 6.27103 25.0599ZM10.7161 16.7495C10.7437 15.3691 11.4892 14.6512 12.7316 14.7064C13.974 14.7341 14.6366 15.4519 14.5814 16.86C14.5262 18.2128 13.8083 18.9306 12.5935 18.903C11.3235 18.8478 10.6609 18.0748 10.7161 16.7495Z" fill="#1D1D1D"/>
<path d="M17.5244 30.6093L19.5674 32.4315C20.3681 31.548 21.3344 30.4989 22.3836 29.3945C23.3499 30.5541 24.5371 31.3271 26.028 31.4928C28.1539 31.6861 31.3841 30.8854 34.4488 27.4066L32.3505 25.5844C29.9485 28.3454 27.795 28.8699 26.3041 28.7319C25.5034 28.6491 24.8408 28.1797 24.261 27.4343C25.7795 25.8329 27.4084 24.1488 28.9269 22.575L26.9391 20.6424C25.6414 21.9676 24.261 23.4033 22.9358 24.8114C22.5216 23.5966 22.2179 22.2161 22.0799 20.8357L19.319 21.167C19.5398 23.0168 20.0368 25.1151 20.8927 26.9649C19.6227 28.2901 18.4631 29.5602 17.5244 30.6093Z" fill="#1D1D1D"/>
</svg>
